<svg id="图层_1" data-name="图层 1" xmlns="http://www.w3.org/2000/svg" viewBox="0 0 595.28 841.89"><defs><style>.cls-1,.cls-4{fill:none;}.cls-2{fill:#040000;}.cls-3{fill:#fff;}.cls-4{stroke:#fff;stroke-linecap:round;stroke-miterlimit:10;stroke-width:8px;}</style></defs><path class="cls-1" d="M410.58,294.92H184.7l-61.95-40.63A234.76,234.76,0,0,0,62,412.17C62,542.3,167.51,647.79,297.64,647.79S533.25,542.3,533.25,412.17a234.75,234.75,0,0,0-60.72-157.88Z"/><path class="cls-2" d="M184.7,529.3H410.58l61.95,40.63a234.75,234.75,0,0,0,60.72-157.88c0-130.13-105.48-235.62-235.61-235.62S62,281.92,62,412.05a234.76,234.76,0,0,0,60.73,157.88Z"/><path class="cls-3" d="M396.75,488.6H199.6S187.2,458,187.2,406c0-52.29,12.4-82.58,12.4-82.58s23.68-14.68,97.35-14.68c72.1,0,99.8,14.68,99.8,14.68s11.32,30.29,11.32,82.58C408.07,445.74,396.75,488.6,396.75,488.6Z"/><path class="cls-2" d="M371.34,386.19s6.38,1.41,8.17,2.6c5.44,4.6,10.84,13.76,14,18.61-5.13,6.49-9.22,3.42-14,1.37s-14-18.79-14-18.79Z"/><path class="cls-2" d="M224,386.19s-6.38,1.41-8.18,2.6c-5.43,4.6-10.83,13.76-14,18.61,5.12,6.49,9.22,3.42,14,1.37s14-18.79,14-18.79Z"/><path class="cls-2" d="M376.73,413.41c-6-56.65-36.69-84.8-79.09-84.8s-73.09,28.15-79.1,84.8c-2.41,22.74-20.06,66-20.06,98.9,0,59,22.77,86.94,99.16,86.94s99.15-27.93,99.15-86.94C396.79,479.38,379.15,436.15,376.73,413.41Z"/><path class="cls-2" d="M290.37,341.25a29.14,29.14,0,0,1-8,12.48,20.49,20.49,0,0,0,5.57-40,21.43,21.43,0,0,0-3.29-.76A29.3,29.3,0,0,1,290.37,341.25Z"/><circle class="cls-2" cx="297.64" cy="591.77" r="22.31"/><line class="cls-4" x1="335.73" y1="317.88" x2="395.29" y2="227.48"/><line class="cls-4" x1="265.16" y1="313" x2="223.46" y2="242.14"/></svg>